<?xml version="1.0" encoding="UTF-8" standalone="no"?>
<!-- Created with Inkscape (http://www.inkscape.org/) -->

<svg
   xmlns:dc="http://purl.org/dc/elements/1.1/"
   xmlns:cc="http://creativecommons.org/ns#"
   xmlns:rdf="http://www.w3.org/1999/02/22-rdf-syntax-ns#"
   xmlns:svg="http://www.w3.org/2000/svg"
   xmlns="http://www.w3.org/2000/svg"
   xmlns:sodipodi="http://sodipodi.sourceforge.net/DTD/sodipodi-0.dtd"
   xmlns:inkscape="http://www.inkscape.org/namespaces/inkscape"
   width="209.87346mm"
   height="132.75903mm"
   viewBox="0 0 209.87346 132.75903"
   version="1.1"
   id="svg8"
   inkscape:version="0.92.3 (2405546, 2018-03-11)"
   sodipodi:docname="logo.svg">
  <defs
     id="defs2">
    <inkscape:perspective
       sodipodi:type="inkscape:persp3d"
       inkscape:vp_x="-41.688278 : 222.49454 : 1"
       inkscape:vp_y="0 : 2155.0225 : 0"
       inkscape:vp_z="101.8054 : 319.27868 : 1"
       inkscape:persp3d-origin="104.9044 : -43.162774 : 1"
       id="perspective3749" />
  </defs>
  <sodipodi:namedview
     id="base"
     pagecolor="#ffffff"
     bordercolor="#666666"
     borderopacity="1.0"
     inkscape:pageopacity="0.0"
     inkscape:pageshadow="2"
     inkscape:zoom="0.35"
     inkscape:cx="1635.6046"
     inkscape:cy="-229.27926"
     inkscape:document-units="mm"
     inkscape:current-layer="layer1"
     showgrid="false"
     inkscape:window-width="1280"
     inkscape:window-height="657"
     inkscape:window-x="-8"
     inkscape:window-y="-8"
     inkscape:window-maximized="1" />
  <metadata
     id="metadata5">
    <rdf:RDF>
      <cc:Work
         rdf:about="">
        <dc:format>image/svg+xml</dc:format>
        <dc:type
           rdf:resource="http://purl.org/dc/dcmitype/StillImage" />
        <dc:title />
      </cc:Work>
    </rdf:RDF>
  </metadata>
  <g
     inkscape:label="Capa 1"
     inkscape:groupmode="layer"
     id="layer1"
     transform="translate(179.72457,197.92818)">
    <g
       sodipodi:type="inkscape:box3d"
       id="g3793"
       inkscape:perspectiveID="#perspective3749"
       inkscape:corner0="11.650139 : 0.12085328 : 0 : 1"
       inkscape:corner7="11.650139 : 0.12085328 : 0.25 : 1">
      <path
         sodipodi:type="inkscape:box3dside"
         id="path3795"
         style="fill:#353564;fill-rule:evenodd;stroke:none;stroke-width:1.46748006;stroke-linejoin:round"
         inkscape:box3dsidetype="6"
         d="m -209.82462,-287.25138 v 0 l 2.55628,-1.88363 v 0 z"
         points="-209.82462,-287.25138 -207.26834,-289.13501 -207.26834,-289.13501 -209.82462,-287.25138 " />
      <path
         sodipodi:type="inkscape:box3dside"
         id="path3803"
         style="fill:#afafde;fill-rule:evenodd;stroke:none;stroke-width:1.46748006;stroke-linejoin:round"
         inkscape:box3dsidetype="13"
         d="m -209.82462,-287.25138 v 0 l 2.55628,-1.88363 v 0 z"
         points="-209.82462,-287.25138 -207.26834,-289.13501 -207.26834,-289.13501 -209.82462,-287.25138 " />
      <path
         sodipodi:type="inkscape:box3dside"
         id="path3805"
         style="fill:#e9e9ff;fill-rule:evenodd;stroke:none;stroke-width:1.46748006;stroke-linejoin:round"
         inkscape:box3dsidetype="11"
         d="m -207.26834,-289.13501 v 0 0 z"
         points="-207.26834,-289.13501 -207.26834,-289.13501 " />
      <path
         sodipodi:type="inkscape:box3dside"
         id="path3797"
         style="fill:#4d4d9f;fill-rule:evenodd;stroke:none;stroke-width:1.46748006;stroke-linejoin:round"
         inkscape:box3dsidetype="5"
         d="m -209.82462,-287.25138 v 0 l 2.55628,-1.88363 v 0 z"
         points="-209.82462,-287.25138 -207.26834,-289.13501 -207.26834,-289.13501 -209.82462,-287.25138 " />
      <path
         sodipodi:type="inkscape:box3dside"
         id="path3801"
         style="fill:#d7d7ff;fill-rule:evenodd;stroke:none;stroke-width:1.46748006;stroke-linejoin:round"
         inkscape:box3dsidetype="14"
         d="m -209.82462,-287.25138 v 0 l 2.55628,-1.88363 v 0 z"
         points="-209.82462,-287.25138 -207.26834,-289.13501 -207.26834,-289.13501 -209.82462,-287.25138 " />
      <path
         sodipodi:type="inkscape:box3dside"
         id="path3799"
         style="fill:#8686bf;fill-rule:evenodd;stroke:none;stroke-width:1.46748006;stroke-linejoin:round"
         inkscape:box3dsidetype="3"
         d="m -209.82462,-287.25138 v 0 0 z"
         points="-209.82462,-287.25138 -209.82462,-287.25138 " />
    </g>
    <g
       id="g884"
       transform="matrix(0.69897781,0,0,1.4468592,-180.93217,-161.63771)">
      <text
         transform="scale(1.2225253,0.81797901)"
         id="text3715"
         y="23.452814"
         x="69.02845"
         style="font-style:normal;font-weight:normal;font-size:27.59349442px;line-height:1.25;font-family:sans-serif;letter-spacing:0px;word-spacing:0px;fill:#000000;fill-opacity:1;stroke:none;stroke-width:0.6898374"
         xml:space="preserve"><tspan
           style="font-style:normal;font-variant:normal;font-weight:normal;font-stretch:normal;font-family:Elephant;-inkscape-font-specification:Elephant;stroke-width:0.6898374"
           y="23.452814"
           x="69.02845"
           id="tspan3713"
           sodipodi:role="line">EAHR</tspan><tspan
           id="tspan3717"
           style="font-style:normal;font-variant:normal;font-weight:normal;font-stretch:normal;font-size:18.39566422px;font-family:Elephant;-inkscape-font-specification:Elephant;stroke-width:0.6898374"
           y="58.035858"
           x="69.02845"
           sodipodi:role="line">Public Accountant</tspan></text>
      <ellipse
         style="fill:#d24d15;fill-opacity:1;stroke-width:0.6898374"
         ry="26.601418"
         rx="37.348072"
         cy="26.438839"
         cx="42.221844"
         id="path3807" />
      <path
         inkscape:connector-curvature="0"
         d="m 38.57045,26.738129 c -0.644367,-1.019035 -1.407427,-1.975919 -1.998963,-3.02037 -0.575205,-0.73558 -1.017446,-1.545416 -1.573836,-2.288871 -0.377862,-0.456072 -0.621992,-0.971118 -1.024454,-1.413186 -0.621655,-0.436623 -1.18357,-0.568969 -1.949021,-0.347357 -1.312425,0.338584 -2.518897,0.922149 -3.717454,1.482106 8.678391,-3.990992 5.107526,-2.708804 3.467874,-1.576091 -0.480564,0.331996 -0.889429,0.739881 -1.300233,1.131785 -0.789765,0.625593 -1.269656,1.408086 -1.756553,2.21153 -0.373986,0.624575 -0.496531,1.318214 -0.583021,2.007584 -0.198674,0.809084 -0.406909,1.609923 -0.514246,2.433376 -0.127179,0.981551 -0.12361,1.95616 0.01913,2.934044 0.139132,1.279489 0.414055,2.528305 0.857562,3.754632 0.476041,0.817634 0.843649,1.672112 1.278931,2.504625 0.450462,0.618121 0.836691,1.256391 1.304416,1.864883 0.39524,0.452187 0.908889,1.049651 1.610751,1.139425 0.655386,0.195676 1.445628,-0.214101 2.098722,-0.366328 0.927128,-0.170677 1.783616,-0.535503 2.635918,-0.879652 1.943284,-0.272056 6.083855,-2.758424 -4.435024,2.308762 -0.117617,0.05668 0.233575,-0.116888 0.342908,-0.184728 0.131259,-0.0814 0.688953,-0.484618 0.800379,-0.564481 2.060617,-1.286011 4.424623,-2.18758 6.559587,-3.357947 1.637647,-0.89778 -3.362807,1.672539 -5.052495,2.496324 -0.189334,0.0923 0.330911,-0.245407 0.470521,-0.38874 0.331245,-0.531155 0.801695,-0.982725 1.173746,-1.490657 0.277977,-0.535644 0.79299,-0.923779 1.13755,-1.418251 0.188633,-0.368453 0.438942,-0.682226 0.653906,-1.034077 0.241289,-0.273894 0.582833,-0.51032 0.869802,-0.775752 0.480347,-0.471654 0.893972,-0.982591 1.438769,-1.402743 0.09897,-0.05965 0.19794,-0.119302 0.296782,-0.178931 0.07459,-0.05327 0.145093,-0.111717 0.224492,-0.159817 1.864513,-1.129115 3.969139,-1.933717 5.95383,-2.900443 1.63793,-0.797838 -3.268714,1.606453 -4.901506,2.412033 0.232842,-0.05482 0.282184,-0.261678 0.453547,-0.38285 0.6808,-0.481404 13.780422,-6.755311 0.707003,-0.337638 1.693344,-1.280541 4.85204,-2.437501 6.013521,-3.031449 1.714097,-0.876547 -3.466727,1.696462 -5.201214,2.542998 -0.131482,0.06422 0.259808,-0.13497 0.377001,-0.217231 1.792674,-1.283889 0.163038,-0.129452 5.6594,-2.898824 0.05907,-0.02972 0.115002,-0.07387 0.183118,-0.07918 0.08558,-0.0067 0.166639,0.04959 0.252509,0.04519 0.544822,-0.02795 -0.124087,-0.149688 0.426007,-0.01703 0.294712,-0.178845 -0.06741,-0.0073 0.349845,0.0028 0.05881,0.0014 0.09537,-0.0731 0.153953,-0.07301 0.07984,1.31e-4 0.502054,0.0529 0.575518,0.08489 0.373845,0.203456 0.786775,0.163889 1.197604,0.295652 0.509991,0.07689 0.992846,0.59593 1.500685,0.567676 0.51336,0.09945 0.943479,0.468881 1.470804,0.495534 0.445632,0.315483 0.889069,0.596168 1.351439,0.89396 0.928228,0.654476 1.882034,1.274517 2.869073,1.860683 0.66593,0.513557 1.364852,0.991849 1.859422,1.638813 0.366792,0.399858 0.549314,0.899289 0.73803,1.376615 0.0851,0.397468 0.309054,0.717108 0.551707,1.052957 0.22736,0.390094 0.458711,0.774893 0.653238,1.17956 0.06025,0.287976 0.204889,0.640607 0.131003,0.933938 -0.02645,0.317027 0.157078,0.556172 0.367439,0.850354 0.04517,0.08844 0.09059,0.176885 0.135785,0.26532 0,0 -5.462677,2.634862 -5.462677,2.634862 v 0 c -0.03226,-0.0648 -0.06502,-0.129646 -0.09731,-0.194447 -0.103751,-0.14193 -0.751228,-1.000196 -0.507434,-1.035428 -0.08007,-0.245134 -0.05568,-0.547527 -0.04472,-0.80271 -0.206804,-0.369263 -0.333661,-0.773795 -0.597131,-1.12573 C 58.775501,37.853115 58.42682,37.465269 58.41226,37.049608 58.212153,36.617371 58.100592,36.15175 57.773606,35.767596 57.315133,35.186149 56.654128,34.75374 56.047772,34.290205 55.07713,33.690969 54.1746,33.013288 53.177329,32.444913 c -0.453594,-0.231688 -0.805995,-0.574971 -1.292532,-0.732035 -0.469972,-0.20046 -0.958591,-0.376724 -1.465974,-0.495347 -0.474658,-0.216623 -0.949459,-0.439543 -1.466191,-0.57476 -0.41788,-0.05497 -0.800784,-0.157316 -1.203387,-0.234139 -0.245911,0.137168 -0.729761,-0.02026 -1.015151,0.05683 -0.385942,0.182401 0.376284,-0.164105 -0.362132,0.08236 -0.11666,0.03894 -0.418189,0.236189 -0.310553,0.181238 5.299997,-2.706997 6.558682,-3.953406 5.073988,-2.516825 -1.92791,1.542785 0.769994,0.498118 -5.925525,3.047947 -1.817896,0.692288 3.429508,-1.728968 5.153476,-2.579799 0.150862,-0.07446 -0.515393,0.331522 -0.434757,0.248007 -1.859469,0.948699 -3.908969,1.665619 -5.578336,2.846097 -1.538004,1.087517 3.451931,-1.710086 5.178937,-2.563643 0.270901,-0.133891 -1.35113,0.519376 -0.738341,0.486598 -1.864204,0.937236 -3.723745,1.881302 -5.592611,2.81171 -1.610842,0.801946 3.209236,-1.622149 4.821562,-2.421949 0.173556,-0.08614 -0.370951,0.136457 -0.537505,0.232415 -0.104006,0.05984 -0.184074,0.145421 -0.276127,0.218153 -0.646901,0.272294 -1.107863,0.771376 -1.476493,1.288331 -0.255761,0.233038 -0.532654,0.670408 -0.885101,0.713978 -0.237401,0.185462 -0.150383,0.264756 -0.308258,0.488805 -0.08702,0.123439 -0.435115,0.255887 -0.402603,0.502088 -0.115002,0.175052 -0.193413,0.366644 -0.309595,0.541147 -0.216587,0.325437 -0.700427,0.47914 -0.82658,0.870615 -0.333802,0.553233 -0.845154,0.982692 -1.152037,1.544121 -1.48565,2.078086 -0.513171,0.438456 -6.003506,3.392135 -1.621773,0.872458 3.293647,-1.674722 4.957898,-2.486099 0.308736,-0.150507 -1.15297,0.727576 -0.894736,0.495993 -0.364114,0.22881 -0.692609,0.608779 -1.073961,0.800863 -3.667683,1.847703 -3.89233,2.191145 -6.282873,2.950879 -0.860102,0.346978 -1.769373,0.605682 -2.689785,0.806778 -0.786514,0.203283 -1.586816,0.443611 -2.376272,0.114884 -0.723734,-0.35084 -1.304415,-0.850387 -1.777708,-1.437514 -0.509705,-0.623573 -0.883118,-1.30731 -1.356532,-1.950248 -0.43765,-0.857031 -0.801168,-1.736791 -1.268031,-2.584043 -0.435188,-1.251111 -0.761627,-2.519286 -0.915056,-3.820532 -0.188142,-1.012466 -0.232129,-2.014213 -0.108296,-3.038004 0.0796,-0.813439 0.187903,-1.629378 0.482689,-2.409679 0.04806,-0.746382 0.207745,-1.497114 0.50375,-2.200787 0.464091,-0.839789 0.902243,-1.70995 1.729826,-2.341204 2.218014,-2.399262 5.030069,-3.365673 8.328787,-4.940488 1.239201,-0.564633 2.50544,-1.151386 3.895604,-1.381846 0.912641,-0.02668 1.714145,0.220226 2.344765,0.805578 0.429857,0.453681 0.670066,0.985914 1.042978,1.474046 0.553432,0.770888 0.999156,1.598714 1.562104,2.365538 0.573031,1.049686 1.326791,2.008824 2.065994,2.976431 0,0 -5.443196,2.658537 -5.443196,2.658537 z"
         id="path4636"
         style="fill:#000000;fill-opacity:1;stroke-width:0.18653275" />
      <path
         inkscape:connector-curvature="0"
         d="m 22.903905,14.574341 c 1.226099,-0.124173 2.417678,-0.379536 3.63168,-0.564778 1.520289,-0.231014 3.067016,-0.245384 4.605904,-0.27522 1.402145,-0.03168 2.779236,-0.288333 4.177675,-0.395761 1.246274,-0.289937 2.524609,-0.445004 3.808683,-0.539594 1.187729,-0.09075 2.346746,-0.345185 3.535624,-0.459768 1.030525,-0.238901 2.079575,-0.423981 3.136036,-0.553562 0.834466,0.03194 1.571421,-0.133095 2.352606,-0.348237 0.956987,-0.174622 1.871541,-0.401459 2.851047,-0.499095 1.391984,-0.08943 2.786789,-0.165074 4.182623,-0.190417 0.712833,-0.0209 1.426217,-0.0032 2.139146,-0.01379 0.08584,6.9e-5 0.171421,1.43e-4 0.257194,1.69e-4 0,0 -5.077643,3.162209 -5.077643,3.162209 v 0 c -0.0851,-5.2e-4 -0.17021,-8.47e-4 -0.255473,-0.0014 -0.695834,-0.01508 -1.392868,-1.72e-4 -2.088775,-10e-4 -1.370208,0.02612 -2.744714,0.05101 -4.102778,0.224805 -0.964781,0.154515 -1.906778,0.389156 -2.856737,0.598058 -0.785532,0.189297 -1.593586,0.185634 -2.397095,0.284499 -1.043718,0.151606 -2.074457,0.349379 -3.113636,0.519926 -1.181345,0.142727 -2.345434,0.387164 -3.539522,0.443542 -1.277138,0.120423 -2.529106,0.345519 -3.793887,0.531153 -1.394996,0.130573 -2.779973,0.377221 -4.189145,0.354229 -1.525739,0.03521 -3.054993,0.09542 -4.55642,0.349937 -1.230139,0.209447 -2.463028,0.409248 -3.686975,0.640337 0,0 4.979845,-3.266368 4.979845,-3.266368 z"
         id="path4638"
         style="fill:#000000;fill-opacity:1;stroke-width:0.18653275" />
      <rect
         y="-24.345688"
         x="2.4642131"
         height="90.2836"
         width="298.78458"
         id="rect4640"
         style="opacity:0.93199978;fill:none;fill-opacity:1;stroke:#8d0000;stroke-width:1.47310162;stroke-miterlimit:4;stroke-dasharray:none;stroke-opacity:1" />
    </g>
  </g>
</svg>
